<?xml version="1.0" encoding="UTF-8"?>
<svg width="16px" height="11px" viewBox="0 0 16 11" version="1.1" xmlns="http://www.w3.org/2000/svg" xmlns:xlink="http://www.w3.org/1999/xlink">
    <title>Icon/Engine</title>
    <g id="⛔️-Symbols-⛔️" stroke="none" stroke-width="1" fill="none" fill-rule="evenodd">
        <g id="Listing" transform="translate(-20.000000, -310.000000)" fill="#000000" fill-rule="nonzero">
            <g id="Icon/Engine" transform="translate(20.000000, 310.000000)">
                <path d="M15.2,3.92857143 L13.6,3.92857143 L13.6,4.71428571 L12.8,4.71428571 L12.8,2.99284857 C12.8010416,2.69494419 12.6295541,2.42236727 12.357816,2.29000357 L11.06328,1.65429786 C10.9521062,1.59996371 10.8296498,1.57160248 10.705472,1.57142857 L8.8,1.57142857 L8.8,0.785714286 L10.4,0.785714286 L10.4,0 L4.8,0 L4.8,0.785714286 L6.4,0.785714286 L6.4,1.57142857 L4.528904,1.57142857 C4.36150536,1.57097724 4.19825131,1.62254418 4.062504,1.71875 L3.155472,2.35714286 L1.6,2.35714286 L1.6,5.5 L0.8,5.5 L0.8,2.35714286 L0,2.35714286 L0,9.42857143 L0.8,9.42857143 L0.8,6.28571429 L1.6,6.28571429 L1.6,9.42857143 L3.85,9.42857143 L5.737504,10.8392507 C5.8771042,10.9432531 6.04743754,10.999691 6.222656,11 L12,11 C12.441645,10.9995669 12.799559,10.6480442 12.8,10.2142857 L12.8,9.42857143 L13.6,9.42857143 L13.6,10.2142857 L15.2,10.2142857 C15.641645,10.2138526 15.999559,9.86232992 16,9.42857143 L16,4.71428571 C15.999559,4.28052722 15.641645,3.92900454 15.2,3.92857143 Z M7.2,0.785714286 L8,0.785714286 L8,1.57142857 L7.2,1.57142857 L7.2,0.785714286 Z M15.2,9.42857143 L14.4,9.42857143 L14.4,8.64285714 L12.8,8.64285714 C12.358355,8.64329025 12.000441,8.99481294 12,9.42857143 L12,10.2142857 L6.222656,10.2142857 L4.3352,8.80360643 C4.19558532,8.69959691 4.02523442,8.64315877 3.85,8.64285714 L2.4,8.64285714 L2.4,3.14285714 L3.155472,3.14285714 C3.32260432,3.14318569 3.48556612,3.09162262 3.621072,2.99553571 L4.528904,2.35714286 L10.705472,2.35714286 L12,2.99284857 L12,4.71428571 C12.000441,5.14804421 12.358355,5.49956689 12.8,5.5 L14.4,5.5 L14.4,4.71428571 L15.2,4.71428571 L15.2,9.42857143 Z" id="Shape"></path>
            </g>
        </g>
    </g>
</svg>