<?xml version="1.0" encoding="UTF-8"?>
<svg width="14px" height="13px" viewBox="0 0 14 13" version="1.1" xmlns="http://www.w3.org/2000/svg" xmlns:xlink="http://www.w3.org/1999/xlink">
    <title>Icon/fuel</title>
    <g id="⛔️-Symbols-⛔️" stroke="none" stroke-width="1" fill="none" fill-rule="evenodd">
        <g id="Listing" transform="translate(-21.000000, -332.000000)" fill="#000000">
            <g id="Icon/fuel" transform="translate(21.000000, 332.000000)">
                <g id="Group-3">
                    <path d="M7.17948718,0.150361446 L2.33333333,0.150361446 C1.04466892,0.150361446 0,1.06197443 0,2.18650602 L0,12.5771084 C0,12.7501133 0.160718295,12.8903614 0.358974359,12.8903614 L9.15384615,12.8903614 C9.35210222,12.8903614 9.51282051,12.7501133 9.51282051,12.5771084 L9.51282051,4.17096386 L10.0961538,4.17096386 C10.492666,4.17096386 10.8141026,4.45146016 10.8141026,4.79746988 L10.8141026,9.20337349 C10.8429394,9.95292745 11.5476111,10.5475498 12.4070513,10.5475498 C13.2664915,10.5475498 13.9711631,9.95292745 14,9.20337349 L14,2.44807229 C14,2.35809752 13.9554097,2.27251585 13.8779487,2.21313253 L10.9828205,-5.78707096e-14 L10.5107692,0.469879518 L13.2820513,2.59060241 L13.2820513,9.20337349 C13.2608564,9.61163584 12.8753821,9.93311978 12.4070513,9.93311978 C11.9387205,9.93311978 11.5532462,9.61163584 11.5320513,9.20337349 L11.5320513,4.79746988 C11.5320513,4.10545043 10.8891781,3.54445783 10.0961538,3.54445783 L9.51282051,3.54445783 L9.51282051,2.18650602 C9.51282051,1.06197443 8.4681516,0.150361446 7.17948718,0.150361446 Z M8.79487179,12.2622892 L0.717948718,12.2622892 L0.717948718,2.18650602 C0.717948718,1.40798415 1.44118105,0.77686747 2.33333333,0.77686747 L7.17948718,0.77686747 C8.07163947,0.77686747 8.79487179,1.40798415 8.79487179,2.18650602 L8.79487179,12.2622892 Z" id="Shape" fill-rule="nonzero"></path>
                    <path d="M6.98205128,1.87481928 L2.53076923,1.87481928 C2.1342571,1.87481928 1.81282051,2.15531558 1.81282051,2.5013253 L1.81282051,5.5273494 C1.81282051,5.70035426 1.97353881,5.84060241 2.17179487,5.84060241 L7.34102564,5.84060241 C7.53928171,5.84060241 7.7,5.70035426 7.7,5.5273494 L7.7,2.5013253 C7.7,2.15531558 7.37856341,1.87481928 6.98205128,1.87481928 Z M6.98205128,5.21409639 L2.53076923,5.21409639 L2.53076923,2.5013253 L6.98205128,2.5013253 L6.98205128,5.21409639 Z" id="Shape" fill-rule="nonzero"></path>
                </g>
            </g>
        </g>
    </g>
</svg>